<svg xmlns="http://www.w3.org/2000/svg" width="672" height="128" class="svgbob">
  <style>.svgbob line, .svgbob path, .svgbob circle, .svgbob rect, .svgbob polygon {
  stroke: black;
  stroke-width: 2;
  stroke-opacity: 1;
  fill-opacity: 1;
  stroke-linecap: round;
  stroke-linejoin: miter;
}

.svgbob text {
  white-space: pre;
  fill: black;
  font-family: Monaco;
  font-size: 14px;
}

.svgbob rect.backdrop {
  stroke: none;
  fill: white;
}

.svgbob .broken {
  stroke-dasharray: 8;
}

.svgbob .filled {
  fill: black;
}

.svgbob .bg_filled {
  fill: white;
  stroke-width: 1;
}

.svgbob .nofill {
  fill: white;
}

.svgbob .end_marked_arrow {
  marker-end: url(#arrow);
}

.svgbob .start_marked_arrow {
  marker-start: url(#arrow);
}

.svgbob .end_marked_diamond {
  marker-end: url(#diamond);
}

.svgbob .start_marked_diamond {
  marker-start: url(#diamond);
}

.svgbob .end_marked_circle {
  marker-end: url(#circle);
}

.svgbob .start_marked_circle {
  marker-start: url(#circle);
}

.svgbob .end_marked_open_circle {
  marker-end: url(#open_circle);
}

.svgbob .start_marked_open_circle {
  marker-start: url(#open_circle);
}

.svgbob .end_marked_big_open_circle {
  marker-end: url(#big_open_circle);
}

.svgbob .start_marked_big_open_circle {
  marker-start: url(#big_open_circle);
}

</style>
  <defs>
    <marker id="arrow" viewBox="-2 -2 8 8" refX="4" refY="2" markerWidth="7" markerHeight="7" orient="auto-start-reverse">
      <polygon points="0,0 0,4 4,2 0,0"></polygon>
    </marker>
    <marker id="diamond" viewBox="-2 -2 8 8" refX="4" refY="2" markerWidth="7" markerHeight="7" orient="auto-start-reverse">
      <polygon points="0,2 2,0 4,2 2,4 0,2"></polygon>
    </marker>
    <marker id="circle" viewBox="0 0 8 8" refX="4" refY="4" markerWidth="7" markerHeight="7" orient="auto-start-reverse">
      <circle cx="4" cy="4" r="2" class="filled"></circle>
    </marker>
    <marker id="open_circle" viewBox="0 0 8 8" refX="4" refY="4" markerWidth="7" markerHeight="7" orient="auto-start-reverse">
      <circle cx="4" cy="4" r="2" class="bg_filled"></circle>
    </marker>
    <marker id="big_open_circle" viewBox="0 0 8 8" refX="4" refY="4" markerWidth="7" markerHeight="7" orient="auto-start-reverse">
      <circle cx="4" cy="4" r="3" class="bg_filled"></circle>
    </marker>
  </defs>
  <rect class="backdrop" x="0" y="0" width="672" height="128"></rect>
  <rect x="0" y="16" width="8" height="16" class="solid filled" rx="0"></rect>
  <rect x="8" y="16" width="8" height="16" class="solid filled" rx="0"></rect>
  <rect x="24" y="16" width="8" height="16" class="solid filled" rx="0"></rect>
  <rect x="32" y="16" width="8" height="16" class="solid filled" rx="0"></rect>
  <rect x="40" y="16" width="8" height="16" class="solid filled" rx="0"></rect>
  <rect x="80" y="16" width="8" height="16" class="solid filled" rx="0"></rect>
  <rect x="88" y="16" width="8" height="16" class="solid filled" rx="0"></rect>
  <rect x="104" y="16" width="8" height="16" class="solid filled" rx="0"></rect>
  <rect x="112" y="16" width="8" height="16" class="solid filled" rx="0"></rect>
  <rect x="120" y="16" width="8" height="16" class="solid filled" rx="0"></rect>
  <rect x="128" y="16" width="8" height="16" class="solid filled" rx="0"></rect>
  <rect x="136" y="16" width="8" height="16" class="solid filled" rx="0"></rect>
  <rect x="144" y="16" width="8" height="16" class="solid filled" rx="0"></rect>
  <rect x="176" y="16" width="8" height="16" class="solid filled" rx="0"></rect>
  <rect x="184" y="16" width="8" height="16" class="solid filled" rx="0"></rect>
  <rect x="192" y="16" width="8" height="16" class="solid filled" rx="0"></rect>
  <rect x="200" y="16" width="8" height="16" class="solid filled" rx="0"></rect>
  <rect x="208" y="16" width="8" height="16" class="solid filled" rx="0"></rect>
  <rect x="216" y="16" width="8" height="16" class="solid filled" rx="0"></rect>
  <rect x="240" y="16" width="8" height="16" class="solid filled" rx="0"></rect>
  <rect x="248" y="16" width="8" height="16" class="solid filled" rx="0"></rect>
  <rect x="280" y="16" width="8" height="16" class="solid filled" rx="0"></rect>
  <rect x="288" y="16" width="8" height="16" class="solid filled" rx="0"></rect>
  <rect x="0" y="32" width="8" height="16" class="solid filled" rx="0"></rect>
  <rect x="8" y="32" width="8" height="16" class="solid filled" rx="0"></rect>
  <rect x="24" y="32" width="8" height="16" class="solid filled" rx="0"></rect>
  <rect x="32" y="32" width="8" height="16" class="solid filled" rx="0"></rect>
  <rect x="40" y="32" width="8" height="16" class="solid filled" rx="0"></rect>
  <rect x="48" y="32" width="8" height="16" class="solid filled" rx="0"></rect>
  <rect x="80" y="32" width="8" height="16" class="solid filled" rx="0"></rect>
  <rect x="88" y="32" width="8" height="16" class="solid filled" rx="0"></rect>
  <rect x="104" y="32" width="8" height="16" class="solid filled" rx="0"></rect>
  <rect x="112" y="32" width="8" height="16" class="solid filled" rx="0"></rect>
  <rect x="144" y="32" width="8" height="16" class="solid filled" rx="0"></rect>
  <rect x="152" y="32" width="8" height="16" class="solid filled" rx="0"></rect>
  <rect x="168" y="32" width="8" height="16" class="solid filled" rx="0"></rect>
  <rect x="176" y="32" width="8" height="16" class="solid filled" rx="0"></rect>
  <rect x="216" y="32" width="8" height="16" class="solid filled" rx="0"></rect>
  <rect x="224" y="32" width="8" height="16" class="solid filled" rx="0"></rect>
  <rect x="248" y="32" width="8" height="16" class="solid filled" rx="0"></rect>
  <rect x="256" y="32" width="8" height="16" class="solid filled" rx="0"></rect>
  <rect x="272" y="32" width="8" height="16" class="solid filled" rx="0"></rect>
  <rect x="280" y="32" width="8" height="16" class="solid filled" rx="0"></rect>
  <rect x="0" y="48" width="8" height="16" class="solid filled" rx="0"></rect>
  <rect x="8" y="48" width="8" height="16" class="solid filled" rx="0"></rect>
  <rect x="24" y="48" width="8" height="16" class="solid filled" rx="0"></rect>
  <rect x="32" y="48" width="8" height="16" class="solid filled" rx="0"></rect>
  <rect x="48" y="48" width="8" height="16" class="solid filled" rx="0"></rect>
  <rect x="56" y="48" width="8" height="16" class="solid filled" rx="0"></rect>
  <rect x="80" y="48" width="8" height="16" class="solid filled" rx="0"></rect>
  <rect x="88" y="48" width="8" height="16" class="solid filled" rx="0"></rect>
  <rect x="104" y="48" width="8" height="16" class="solid filled" rx="0"></rect>
  <rect x="112" y="48" width="8" height="16" class="solid filled" rx="0"></rect>
  <rect x="120" y="48" width="8" height="16" class="solid filled" rx="0"></rect>
  <rect x="128" y="48" width="8" height="16" class="solid filled" rx="0"></rect>
  <rect x="136" y="48" width="8" height="16" class="solid filled" rx="0"></rect>
  <rect x="144" y="48" width="8" height="16" class="solid filled" rx="0"></rect>
  <rect x="168" y="48" width="8" height="16" class="solid filled" rx="0"></rect>
  <rect x="176" y="48" width="8" height="16" class="solid filled" rx="0"></rect>
  <rect x="216" y="48" width="8" height="16" class="solid filled" rx="0"></rect>
  <rect x="224" y="48" width="8" height="16" class="solid filled" rx="0"></rect>
  <rect x="256" y="48" width="8" height="16" class="solid filled" rx="0"></rect>
  <rect x="264" y="48" width="8" height="16" class="solid filled" rx="0"></rect>
  <rect x="272" y="48" width="8" height="16" class="solid filled" rx="0"></rect>
  <rect x="0" y="64" width="8" height="16" class="solid filled" rx="0"></rect>
  <rect x="8" y="64" width="8" height="16" class="solid filled" rx="0"></rect>
  <rect x="24" y="64" width="8" height="16" class="solid filled" rx="0"></rect>
  <rect x="32" y="64" width="8" height="16" class="solid filled" rx="0"></rect>
  <rect x="56" y="64" width="8" height="16" class="solid filled" rx="0"></rect>
  <rect x="64" y="64" width="8" height="16" class="solid filled" rx="0"></rect>
  <rect x="80" y="64" width="8" height="16" class="solid filled" rx="0"></rect>
  <rect x="88" y="64" width="8" height="16" class="solid filled" rx="0"></rect>
  <rect x="104" y="64" width="8" height="16" class="solid filled" rx="0"></rect>
  <rect x="112" y="64" width="8" height="16" class="solid filled" rx="0"></rect>
  <rect x="144" y="64" width="8" height="16" class="solid filled" rx="0"></rect>
  <rect x="152" y="64" width="8" height="16" class="solid filled" rx="0"></rect>
  <rect x="168" y="64" width="8" height="16" class="solid filled" rx="0"></rect>
  <rect x="176" y="64" width="8" height="16" class="solid filled" rx="0"></rect>
  <rect x="216" y="64" width="8" height="16" class="solid filled" rx="0"></rect>
  <rect x="224" y="64" width="8" height="16" class="solid filled" rx="0"></rect>
  <rect x="248" y="64" width="8" height="16" class="solid filled" rx="0"></rect>
  <rect x="256" y="64" width="8" height="16" class="solid filled" rx="0"></rect>
  <rect x="272" y="64" width="8" height="16" class="solid filled" rx="0"></rect>
  <rect x="280" y="64" width="8" height="16" class="solid filled" rx="0"></rect>
  <rect x="0" y="80" width="8" height="16" class="solid filled" rx="0"></rect>
  <rect x="8" y="80" width="8" height="16" class="solid filled" rx="0"></rect>
  <rect x="24" y="80" width="8" height="16" class="solid filled" rx="0"></rect>
  <rect x="32" y="80" width="8" height="16" class="solid filled" rx="0"></rect>
  <rect x="64" y="80" width="8" height="16" class="solid filled" rx="0"></rect>
  <rect x="72" y="80" width="8" height="16" class="solid filled" rx="0"></rect>
  <rect x="80" y="80" width="8" height="16" class="solid filled" rx="0"></rect>
  <rect x="88" y="80" width="8" height="16" class="solid filled" rx="0"></rect>
  <rect x="104" y="80" width="8" height="16" class="solid filled" rx="0"></rect>
  <rect x="112" y="80" width="8" height="16" class="solid filled" rx="0"></rect>
  <rect x="120" y="80" width="8" height="16" class="solid filled" rx="0"></rect>
  <rect x="128" y="80" width="8" height="16" class="solid filled" rx="0"></rect>
  <rect x="136" y="80" width="8" height="16" class="solid filled" rx="0"></rect>
  <rect x="144" y="80" width="8" height="16" class="solid filled" rx="0"></rect>
  <rect x="176" y="80" width="8" height="16" class="solid filled" rx="0"></rect>
  <rect x="184" y="80" width="8" height="16" class="solid filled" rx="0"></rect>
  <rect x="192" y="80" width="8" height="16" class="solid filled" rx="0"></rect>
  <rect x="200" y="80" width="8" height="16" class="solid filled" rx="0"></rect>
  <rect x="208" y="80" width="8" height="16" class="solid filled" rx="0"></rect>
  <rect x="216" y="80" width="8" height="16" class="solid filled" rx="0"></rect>
  <rect x="240" y="80" width="8" height="16" class="solid filled" rx="0"></rect>
  <rect x="248" y="80" width="8" height="16" class="solid filled" rx="0"></rect>
  <rect x="280" y="80" width="8" height="16" class="solid filled" rx="0"></rect>
  <rect x="288" y="80" width="8" height="16" class="solid filled" rx="0"></rect>
  <rect x="344" y="16" width="8" height="16" class="solid filled" rx="0"></rect>
  <rect x="352" y="16" width="8" height="16" class="solid filled" rx="0"></rect>
  <rect x="360" y="16" width="8" height="16" class="solid filled" rx="0"></rect>
  <rect x="368" y="16" width="8" height="16" class="solid filled" rx="0"></rect>
  <rect x="376" y="16" width="8" height="16" class="solid filled" rx="0"></rect>
  <rect x="384" y="16" width="8" height="16" class="solid filled" rx="0"></rect>
  <rect x="408" y="16" width="8" height="16" class="solid filled" rx="0"></rect>
  <rect x="416" y="16" width="8" height="16" class="solid filled" rx="0"></rect>
  <rect x="424" y="16" width="8" height="16" class="solid filled" rx="0"></rect>
  <rect x="432" y="16" width="8" height="16" class="solid filled" rx="0"></rect>
  <rect x="440" y="16" width="8" height="16" class="solid filled" rx="0"></rect>
  <rect x="448" y="16" width="8" height="16" class="solid filled" rx="0"></rect>
  <rect x="480" y="16" width="8" height="16" class="solid filled" rx="0"></rect>
  <rect x="488" y="16" width="8" height="16" class="solid filled" rx="0"></rect>
  <rect x="496" y="16" width="8" height="16" class="solid filled" rx="0"></rect>
  <rect x="504" y="16" width="8" height="16" class="solid filled" rx="0"></rect>
  <rect x="512" y="16" width="8" height="16" class="solid filled" rx="0"></rect>
  <rect x="544" y="16" width="8" height="16" class="solid filled" rx="0"></rect>
  <rect x="552" y="16" width="8" height="16" class="solid filled" rx="0"></rect>
  <rect x="560" y="16" width="8" height="16" class="solid filled" rx="0"></rect>
  <rect x="568" y="16" width="8" height="16" class="solid filled" rx="0"></rect>
  <rect x="576" y="16" width="8" height="16" class="solid filled" rx="0"></rect>
  <rect x="584" y="16" width="8" height="16" class="solid filled" rx="0"></rect>
  <rect x="600" y="16" width="8" height="16" class="solid filled" rx="0"></rect>
  <rect x="608" y="16" width="8" height="16" class="solid filled" rx="0"></rect>
  <rect x="640" y="16" width="8" height="16" class="solid filled" rx="0"></rect>
  <rect x="648" y="16" width="8" height="16" class="solid filled" rx="0"></rect>
  <rect x="336" y="32" width="8" height="16" class="solid filled" rx="0"></rect>
  <rect x="344" y="32" width="8" height="16" class="solid filled" rx="0"></rect>
  <rect x="400" y="32" width="8" height="16" class="solid filled" rx="0"></rect>
  <rect x="408" y="32" width="8" height="16" class="solid filled" rx="0"></rect>
  <rect x="448" y="32" width="8" height="16" class="solid filled" rx="0"></rect>
  <rect x="456" y="32" width="8" height="16" class="solid filled" rx="0"></rect>
  <rect x="472" y="32" width="8" height="16" class="solid filled" rx="0"></rect>
  <rect x="480" y="32" width="8" height="16" class="solid filled" rx="0"></rect>
  <rect x="512" y="32" width="8" height="16" class="solid filled" rx="0"></rect>
  <rect x="520" y="32" width="8" height="16" class="solid filled" rx="0"></rect>
  <rect x="536" y="32" width="8" height="16" class="solid filled" rx="0"></rect>
  <rect x="544" y="32" width="8" height="16" class="solid filled" rx="0"></rect>
  <rect x="600" y="32" width="8" height="16" class="solid filled" rx="0"></rect>
  <rect x="608" y="32" width="8" height="16" class="solid filled" rx="0"></rect>
  <rect x="640" y="32" width="8" height="16" class="solid filled" rx="0"></rect>
  <rect x="648" y="32" width="8" height="16" class="solid filled" rx="0"></rect>
  <rect x="336" y="48" width="8" height="16" class="solid filled" rx="0"></rect>
  <rect x="344" y="48" width="8" height="16" class="solid filled" rx="0"></rect>
  <rect x="400" y="48" width="8" height="16" class="solid filled" rx="0"></rect>
  <rect x="408" y="48" width="8" height="16" class="solid filled" rx="0"></rect>
  <rect x="448" y="48" width="8" height="16" class="solid filled" rx="0"></rect>
  <rect x="456" y="48" width="8" height="16" class="solid filled" rx="0"></rect>
  <rect x="472" y="48" width="8" height="16" class="solid filled" rx="0"></rect>
  <rect x="480" y="48" width="8" height="16" class="solid filled" rx="0"></rect>
  <rect x="488" y="48" width="8" height="16" class="solid filled" rx="0"></rect>
  <rect x="496" y="48" width="8" height="16" class="solid filled" rx="0"></rect>
  <rect x="504" y="48" width="8" height="16" class="solid filled" rx="0"></rect>
  <rect x="512" y="48" width="8" height="16" class="solid filled" rx="0"></rect>
  <rect x="520" y="48" width="8" height="16" class="solid filled" rx="0"></rect>
  <rect x="536" y="48" width="8" height="16" class="solid filled" rx="0"></rect>
  <rect x="544" y="48" width="8" height="16" class="solid filled" rx="0"></rect>
  <rect x="600" y="48" width="8" height="16" class="solid filled" rx="0"></rect>
  <rect x="608" y="48" width="8" height="16" class="solid filled" rx="0"></rect>
  <rect x="616" y="48" width="8" height="16" class="solid filled" rx="0"></rect>
  <rect x="624" y="48" width="8" height="16" class="solid filled" rx="0"></rect>
  <rect x="632" y="48" width="8" height="16" class="solid filled" rx="0"></rect>
  <rect x="640" y="48" width="8" height="16" class="solid filled" rx="0"></rect>
  <rect x="648" y="48" width="8" height="16" class="solid filled" rx="0"></rect>
  <rect x="336" y="64" width="8" height="16" class="solid filled" rx="0"></rect>
  <rect x="344" y="64" width="8" height="16" class="solid filled" rx="0"></rect>
  <rect x="400" y="64" width="8" height="16" class="solid filled" rx="0"></rect>
  <rect x="408" y="64" width="8" height="16" class="solid filled" rx="0"></rect>
  <rect x="448" y="64" width="8" height="16" class="solid filled" rx="0"></rect>
  <rect x="456" y="64" width="8" height="16" class="solid filled" rx="0"></rect>
  <rect x="472" y="64" width="8" height="16" class="solid filled" rx="0"></rect>
  <rect x="480" y="64" width="8" height="16" class="solid filled" rx="0"></rect>
  <rect x="512" y="64" width="8" height="16" class="solid filled" rx="0"></rect>
  <rect x="520" y="64" width="8" height="16" class="solid filled" rx="0"></rect>
  <rect x="536" y="64" width="8" height="16" class="solid filled" rx="0"></rect>
  <rect x="544" y="64" width="8" height="16" class="solid filled" rx="0"></rect>
  <rect x="600" y="64" width="8" height="16" class="solid filled" rx="0"></rect>
  <rect x="608" y="64" width="8" height="16" class="solid filled" rx="0"></rect>
  <rect x="640" y="64" width="8" height="16" class="solid filled" rx="0"></rect>
  <rect x="648" y="64" width="8" height="16" class="solid filled" rx="0"></rect>
  <rect x="344" y="80" width="8" height="16" class="solid filled" rx="0"></rect>
  <rect x="352" y="80" width="8" height="16" class="solid filled" rx="0"></rect>
  <rect x="360" y="80" width="8" height="16" class="solid filled" rx="0"></rect>
  <rect x="368" y="80" width="8" height="16" class="solid filled" rx="0"></rect>
  <rect x="376" y="80" width="8" height="16" class="solid filled" rx="0"></rect>
  <rect x="384" y="80" width="8" height="16" class="solid filled" rx="0"></rect>
  <rect x="408" y="80" width="8" height="16" class="solid filled" rx="0"></rect>
  <rect x="416" y="80" width="8" height="16" class="solid filled" rx="0"></rect>
  <rect x="424" y="80" width="8" height="16" class="solid filled" rx="0"></rect>
  <rect x="432" y="80" width="8" height="16" class="solid filled" rx="0"></rect>
  <rect x="440" y="80" width="8" height="16" class="solid filled" rx="0"></rect>
  <rect x="448" y="80" width="8" height="16" class="solid filled" rx="0"></rect>
  <rect x="472" y="80" width="8" height="16" class="solid filled" rx="0"></rect>
  <rect x="480" y="80" width="8" height="16" class="solid filled" rx="0"></rect>
  <rect x="512" y="80" width="8" height="16" class="solid filled" rx="0"></rect>
  <rect x="520" y="80" width="8" height="16" class="solid filled" rx="0"></rect>
  <rect x="544" y="80" width="8" height="16" class="solid filled" rx="0"></rect>
  <rect x="552" y="80" width="8" height="16" class="solid filled" rx="0"></rect>
  <rect x="560" y="80" width="8" height="16" class="solid filled" rx="0"></rect>
  <rect x="568" y="80" width="8" height="16" class="solid filled" rx="0"></rect>
  <rect x="576" y="80" width="8" height="16" class="solid filled" rx="0"></rect>
  <rect x="584" y="80" width="8" height="16" class="solid filled" rx="0"></rect>
  <rect x="600" y="80" width="8" height="16" class="solid filled" rx="0"></rect>
  <rect x="608" y="80" width="8" height="16" class="solid filled" rx="0"></rect>
  <rect x="640" y="80" width="8" height="16" class="solid filled" rx="0"></rect>
  <rect x="648" y="80" width="8" height="16" class="solid filled" rx="0"></rect>
  <g>
    <line x1="16" y1="24" x2="22" y2="24" class="solid"></line>
    <line x1="22" y1="24" x2="22" y2="108" class="solid"></line>
    <line x1="2" y1="96" x2="2" y2="108" class="solid"></line>
    <line x1="2" y1="108" x2="22" y2="108" class="solid"></line>
  </g>
  <g>
    <line x1="16" y1="28" x2="18" y2="28" class="solid"></line>
    <line x1="18" y1="28" x2="18" y2="104" class="solid"></line>
    <line x1="6" y1="96" x2="6" y2="104" class="solid"></line>
    <line x1="6" y1="104" x2="18" y2="104" class="solid"></line>
  </g>
  <g>
    <line x1="48" y1="24" x2="54" y2="24" class="solid"></line>
    <line x1="54" y1="24" x2="54" y2="32" class="solid"></line>
  </g>
  <g>
    <line x1="48" y1="28" x2="50" y2="28" class="solid"></line>
    <line x1="50" y1="28" x2="50" y2="32" class="solid"></line>
  </g>
  <g>
    <line x1="96" y1="24" x2="102" y2="24" class="solid"></line>
    <line x1="102" y1="24" x2="102" y2="108" class="solid"></line>
    <line x1="66" y1="96" x2="66" y2="108" class="solid"></line>
    <line x1="66" y1="108" x2="102" y2="108" class="solid"></line>
  </g>
  <g>
    <line x1="96" y1="28" x2="98" y2="28" class="solid"></line>
    <line x1="98" y1="28" x2="98" y2="104" class="solid"></line>
    <line x1="70" y1="96" x2="70" y2="104" class="solid"></line>
    <line x1="70" y1="104" x2="98" y2="104" class="solid"></line>
  </g>
  <g>
    <line x1="152" y1="24" x2="158" y2="24" class="solid"></line>
    <line x1="158" y1="24" x2="158" y2="32" class="solid"></line>
  </g>
  <g>
    <line x1="152" y1="28" x2="154" y2="28" class="solid"></line>
    <line x1="154" y1="28" x2="154" y2="32" class="solid"></line>
  </g>
  <g>
    <line x1="224" y1="24" x2="230" y2="24" class="solid"></line>
    <line x1="230" y1="24" x2="230" y2="32" class="solid"></line>
  </g>
  <g>
    <line x1="224" y1="28" x2="226" y2="28" class="solid"></line>
    <line x1="226" y1="28" x2="226" y2="32" class="solid"></line>
  </g>
  <g>
    <line x1="256" y1="24" x2="262" y2="24" class="solid"></line>
    <line x1="262" y1="24" x2="262" y2="32" class="solid"></line>
  </g>
  <g>
    <line x1="256" y1="28" x2="258" y2="28" class="solid"></line>
    <line x1="258" y1="28" x2="258" y2="32" class="solid"></line>
  </g>
  <g>
    <line x1="296" y1="24" x2="302" y2="24" class="solid"></line>
    <line x1="302" y1="24" x2="302" y2="44" class="solid"></line>
    <line x1="294" y1="44" x2="302" y2="44" class="solid"></line>
    <line x1="294" y1="44" x2="294" y2="60" class="solid"></line>
    <line x1="286" y1="60" x2="294" y2="60" class="solid"></line>
    <line x1="286" y1="60" x2="286" y2="64" class="solid"></line>
  </g>
  <g>
    <line x1="296" y1="28" x2="298" y2="28" class="solid"></line>
    <line x1="298" y1="28" x2="298" y2="40" class="solid"></line>
    <line x1="290" y1="40" x2="298" y2="40" class="solid"></line>
    <line x1="290" y1="40" x2="290" y2="56" class="solid"></line>
    <line x1="282" y1="56" x2="290" y2="56" class="solid"></line>
    <line x1="282" y1="56" x2="282" y2="64" class="solid"></line>
  </g>
  <g>
    <line x1="56" y1="40" x2="62" y2="40" class="solid"></line>
    <line x1="62" y1="40" x2="62" y2="48" class="solid"></line>
  </g>
  <g>
    <line x1="56" y1="44" x2="58" y2="44" class="solid"></line>
    <line x1="58" y1="44" x2="58" y2="48" class="solid"></line>
  </g>
  <g>
    <line x1="122" y1="40" x2="144" y2="40" class="solid"></line>
    <line x1="122" y1="40" x2="122" y2="48" class="solid"></line>
  </g>
  <g>
    <line x1="126" y1="44" x2="144" y2="44" class="solid"></line>
    <line x1="126" y1="44" x2="126" y2="48" class="solid"></line>
  </g>
  <g>
    <line x1="160" y1="40" x2="166" y2="40" class="solid"></line>
    <line x1="166" y1="40" x2="166" y2="60" class="solid"></line>
    <line x1="158" y1="60" x2="166" y2="60" class="solid"></line>
    <line x1="158" y1="60" x2="158" y2="64" class="solid"></line>
  </g>
  <g>
    <line x1="160" y1="44" x2="162" y2="44" class="solid"></line>
    <line x1="162" y1="44" x2="162" y2="56" class="solid"></line>
    <line x1="154" y1="56" x2="162" y2="56" class="solid"></line>
    <line x1="154" y1="56" x2="154" y2="64" class="solid"></line>
  </g>
  <g>
    <line x1="186" y1="40" x2="216" y2="40" class="solid"></line>
    <line x1="186" y1="40" x2="186" y2="80" class="solid"></line>
  </g>
  <g>
    <line x1="190" y1="44" x2="216" y2="44" class="solid"></line>
    <line x1="190" y1="44" x2="190" y2="80" class="solid"></line>
  </g>
  <g>
    <line x1="232" y1="40" x2="238" y2="40" class="solid"></line>
    <line x1="238" y1="40" x2="238" y2="92" class="solid"></line>
    <line x1="230" y1="92" x2="238" y2="92" class="solid"></line>
    <line x1="230" y1="92" x2="230" y2="108" class="solid"></line>
    <line x1="178" y1="96" x2="178" y2="108" class="solid"></line>
    <line x1="178" y1="108" x2="230" y2="108" class="solid"></line>
  </g>
  <g>
    <line x1="232" y1="44" x2="234" y2="44" class="solid"></line>
    <line x1="234" y1="44" x2="234" y2="88" class="solid"></line>
    <line x1="226" y1="88" x2="234" y2="88" class="solid"></line>
    <line x1="226" y1="88" x2="226" y2="104" class="solid"></line>
    <line x1="182" y1="96" x2="182" y2="104" class="solid"></line>
    <line x1="182" y1="104" x2="226" y2="104" class="solid"></line>
  </g>
  <g>
    <line x1="242" y1="32" x2="242" y2="44" class="solid"></line>
    <line x1="242" y1="44" x2="248" y2="44" class="solid"></line>
  </g>
  <g>
    <line x1="246" y1="32" x2="246" y2="40" class="solid"></line>
    <line x1="246" y1="40" x2="248" y2="40" class="solid"></line>
  </g>
  <g>
    <line x1="264" y1="40" x2="270" y2="40" class="solid"></line>
    <line x1="270" y1="40" x2="270" y2="48" class="solid"></line>
  </g>
  <g>
    <line x1="264" y1="44" x2="266" y2="44" class="solid"></line>
    <line x1="266" y1="44" x2="266" y2="48" class="solid"></line>
  </g>
  <g>
    <line x1="42" y1="56" x2="48" y2="56" class="solid"></line>
    <line x1="42" y1="56" x2="42" y2="104" class="solid"></line>
    <line x1="30" y1="96" x2="30" y2="104" class="solid"></line>
    <line x1="30" y1="104" x2="42" y2="104" class="solid"></line>
  </g>
  <g>
    <line x1="46" y1="60" x2="48" y2="60" class="solid"></line>
    <line x1="46" y1="60" x2="46" y2="108" class="solid"></line>
    <line x1="26" y1="96" x2="26" y2="108" class="solid"></line>
    <line x1="26" y1="108" x2="46" y2="108" class="solid"></line>
  </g>
  <g>
    <line x1="64" y1="56" x2="70" y2="56" class="solid"></line>
    <line x1="70" y1="56" x2="70" y2="64" class="solid"></line>
  </g>
  <g>
    <line x1="64" y1="60" x2="66" y2="60" class="solid"></line>
    <line x1="66" y1="60" x2="66" y2="64" class="solid"></line>
  </g>
  <g>
    <line x1="250" y1="48" x2="250" y2="60" class="solid"></line>
    <line x1="250" y1="60" x2="256" y2="60" class="solid"></line>
  </g>
  <g>
    <line x1="254" y1="48" x2="254" y2="56" class="solid"></line>
    <line x1="254" y1="56" x2="256" y2="56" class="solid"></line>
  </g>
  <g>
    <line x1="50" y1="64" x2="50" y2="76" class="solid"></line>
    <line x1="50" y1="76" x2="56" y2="76" class="solid"></line>
  </g>
  <g>
    <line x1="54" y1="64" x2="54" y2="72" class="solid"></line>
    <line x1="54" y1="72" x2="56" y2="72" class="solid"></line>
  </g>
  <g>
    <line x1="72" y1="72" x2="78" y2="72" class="solid"></line>
    <line x1="78" y1="72" x2="78" y2="80" class="solid"></line>
  </g>
  <g>
    <line x1="72" y1="76" x2="74" y2="76" class="solid"></line>
    <line x1="74" y1="76" x2="74" y2="80" class="solid"></line>
  </g>
  <g>
    <line x1="122" y1="72" x2="144" y2="72" class="solid"></line>
    <line x1="122" y1="72" x2="122" y2="80" class="solid"></line>
  </g>
  <g>
    <line x1="126" y1="76" x2="144" y2="76" class="solid"></line>
    <line x1="126" y1="76" x2="126" y2="80" class="solid"></line>
  </g>
  <g>
    <line x1="160" y1="72" x2="166" y2="72" class="solid"></line>
    <line x1="166" y1="72" x2="166" y2="92" class="solid"></line>
    <line x1="158" y1="92" x2="166" y2="92" class="solid"></line>
    <line x1="158" y1="92" x2="158" y2="108" class="solid"></line>
    <line x1="106" y1="96" x2="106" y2="108" class="solid"></line>
    <line x1="106" y1="108" x2="158" y2="108" class="solid"></line>
  </g>
  <g>
    <line x1="160" y1="76" x2="162" y2="76" class="solid"></line>
    <line x1="162" y1="76" x2="162" y2="88" class="solid"></line>
    <line x1="154" y1="88" x2="162" y2="88" class="solid"></line>
    <line x1="154" y1="88" x2="154" y2="104" class="solid"></line>
    <line x1="110" y1="96" x2="110" y2="104" class="solid"></line>
    <line x1="110" y1="104" x2="154" y2="104" class="solid"></line>
  </g>
  <g>
    <line x1="266" y1="72" x2="272" y2="72" class="solid"></line>
    <line x1="266" y1="72" x2="266" y2="88" class="solid"></line>
    <line x1="258" y1="88" x2="266" y2="88" class="solid"></line>
    <line x1="258" y1="88" x2="258" y2="104" class="solid"></line>
    <line x1="246" y1="96" x2="246" y2="104" class="solid"></line>
    <line x1="246" y1="104" x2="258" y2="104" class="solid"></line>
  </g>
  <g>
    <line x1="270" y1="76" x2="272" y2="76" class="solid"></line>
    <line x1="270" y1="76" x2="270" y2="92" class="solid"></line>
    <line x1="262" y1="92" x2="270" y2="92" class="solid"></line>
    <line x1="262" y1="92" x2="262" y2="108" class="solid"></line>
    <line x1="242" y1="96" x2="242" y2="108" class="solid"></line>
    <line x1="242" y1="108" x2="262" y2="108" class="solid"></line>
  </g>
  <g>
    <line x1="288" y1="72" x2="294" y2="72" class="solid"></line>
    <line x1="294" y1="72" x2="294" y2="80" class="solid"></line>
  </g>
  <g>
    <line x1="288" y1="76" x2="290" y2="76" class="solid"></line>
    <line x1="290" y1="76" x2="290" y2="80" class="solid"></line>
  </g>
  <g>
    <line x1="58" y1="80" x2="58" y2="92" class="solid"></line>
    <line x1="58" y1="92" x2="64" y2="92" class="solid"></line>
  </g>
  <g>
    <line x1="62" y1="80" x2="62" y2="88" class="solid"></line>
    <line x1="62" y1="88" x2="64" y2="88" class="solid"></line>
  </g>
  <g>
    <line x1="170" y1="80" x2="170" y2="92" class="solid"></line>
    <line x1="170" y1="92" x2="176" y2="92" class="solid"></line>
  </g>
  <g>
    <line x1="174" y1="80" x2="174" y2="88" class="solid"></line>
    <line x1="174" y1="88" x2="176" y2="88" class="solid"></line>
  </g>
  <g>
    <line x1="296" y1="88" x2="302" y2="88" class="solid"></line>
    <line x1="302" y1="88" x2="302" y2="108" class="solid"></line>
    <line x1="282" y1="96" x2="282" y2="108" class="solid"></line>
    <line x1="282" y1="108" x2="302" y2="108" class="solid"></line>
  </g>
  <g>
    <line x1="296" y1="92" x2="298" y2="92" class="solid"></line>
    <line x1="298" y1="92" x2="298" y2="104" class="solid"></line>
    <line x1="286" y1="96" x2="286" y2="104" class="solid"></line>
    <line x1="286" y1="104" x2="298" y2="104" class="solid"></line>
  </g>
  <g>
    <line x1="392" y1="24" x2="398" y2="24" class="solid"></line>
    <line x1="398" y1="24" x2="398" y2="44" class="solid"></line>
    <line x1="358" y1="44" x2="398" y2="44" class="solid"></line>
    <line x1="358" y1="44" x2="358" y2="80" class="solid"></line>
  </g>
  <g>
    <line x1="392" y1="28" x2="394" y2="28" class="solid"></line>
    <line x1="394" y1="28" x2="394" y2="40" class="solid"></line>
    <line x1="354" y1="40" x2="394" y2="40" class="solid"></line>
    <line x1="354" y1="40" x2="354" y2="80" class="solid"></line>
  </g>
  <g>
    <line x1="456" y1="24" x2="462" y2="24" class="solid"></line>
    <line x1="462" y1="24" x2="462" y2="32" class="solid"></line>
  </g>
  <g>
    <line x1="456" y1="28" x2="458" y2="28" class="solid"></line>
    <line x1="458" y1="28" x2="458" y2="32" class="solid"></line>
  </g>
  <g>
    <line x1="520" y1="24" x2="526" y2="24" class="solid"></line>
    <line x1="526" y1="24" x2="526" y2="32" class="solid"></line>
  </g>
  <g>
    <line x1="520" y1="28" x2="522" y2="28" class="solid"></line>
    <line x1="522" y1="28" x2="522" y2="32" class="solid"></line>
  </g>
  <g>
    <line x1="592" y1="24" x2="598" y2="24" class="solid"></line>
    <line x1="598" y1="24" x2="598" y2="44" class="solid"></line>
    <line x1="558" y1="44" x2="598" y2="44" class="solid"></line>
    <line x1="558" y1="44" x2="558" y2="80" class="solid"></line>
  </g>
  <g>
    <line x1="592" y1="28" x2="594" y2="28" class="solid"></line>
    <line x1="594" y1="28" x2="594" y2="40" class="solid"></line>
    <line x1="554" y1="40" x2="594" y2="40" class="solid"></line>
    <line x1="554" y1="40" x2="554" y2="80" class="solid"></line>
  </g>
  <g>
    <line x1="616" y1="24" x2="622" y2="24" class="solid"></line>
    <line x1="622" y1="24" x2="622" y2="48" class="solid"></line>
  </g>
  <g>
    <line x1="616" y1="28" x2="618" y2="28" class="solid"></line>
    <line x1="618" y1="28" x2="618" y2="48" class="solid"></line>
  </g>
  <g>
    <line x1="656" y1="24" x2="662" y2="24" class="solid"></line>
    <line x1="662" y1="24" x2="662" y2="108" class="solid"></line>
    <line x1="642" y1="96" x2="642" y2="108" class="solid"></line>
    <line x1="642" y1="108" x2="662" y2="108" class="solid"></line>
  </g>
  <g>
    <line x1="656" y1="28" x2="658" y2="28" class="solid"></line>
    <line x1="658" y1="28" x2="658" y2="104" class="solid"></line>
    <line x1="646" y1="96" x2="646" y2="104" class="solid"></line>
    <line x1="646" y1="104" x2="658" y2="104" class="solid"></line>
  </g>
  <g>
    <line x1="418" y1="40" x2="448" y2="40" class="solid"></line>
    <line x1="418" y1="40" x2="418" y2="80" class="solid"></line>
  </g>
  <g>
    <line x1="422" y1="44" x2="448" y2="44" class="solid"></line>
    <line x1="422" y1="44" x2="422" y2="80" class="solid"></line>
  </g>
  <g>
    <line x1="464" y1="40" x2="470" y2="40" class="solid"></line>
    <line x1="470" y1="40" x2="470" y2="92" class="solid"></line>
    <line x1="462" y1="92" x2="470" y2="92" class="solid"></line>
    <line x1="462" y1="92" x2="462" y2="108" class="solid"></line>
    <line x1="410" y1="96" x2="410" y2="108" class="solid"></line>
    <line x1="410" y1="108" x2="462" y2="108" class="solid"></line>
  </g>
  <g>
    <line x1="464" y1="44" x2="466" y2="44" class="solid"></line>
    <line x1="466" y1="44" x2="466" y2="88" class="solid"></line>
    <line x1="458" y1="88" x2="466" y2="88" class="solid"></line>
    <line x1="458" y1="88" x2="458" y2="104" class="solid"></line>
    <line x1="414" y1="96" x2="414" y2="104" class="solid"></line>
    <line x1="414" y1="104" x2="458" y2="104" class="solid"></line>
  </g>
  <g>
    <line x1="490" y1="40" x2="512" y2="40" class="solid"></line>
    <line x1="490" y1="40" x2="490" y2="48" class="solid"></line>
  </g>
  <g>
    <line x1="494" y1="44" x2="512" y2="44" class="solid"></line>
    <line x1="494" y1="44" x2="494" y2="48" class="solid"></line>
  </g>
  <g>
    <line x1="528" y1="40" x2="534" y2="40" class="solid"></line>
    <line x1="534" y1="40" x2="534" y2="108" class="solid"></line>
    <line x1="514" y1="96" x2="514" y2="108" class="solid"></line>
    <line x1="514" y1="108" x2="534" y2="108" class="solid"></line>
  </g>
  <g>
    <line x1="528" y1="44" x2="530" y2="44" class="solid"></line>
    <line x1="530" y1="44" x2="530" y2="104" class="solid"></line>
    <line x1="518" y1="96" x2="518" y2="104" class="solid"></line>
    <line x1="518" y1="104" x2="530" y2="104" class="solid"></line>
  </g>
  <g>
    <line x1="490" y1="72" x2="512" y2="72" class="solid"></line>
    <line x1="490" y1="72" x2="490" y2="104" class="solid"></line>
    <line x1="478" y1="96" x2="478" y2="104" class="solid"></line>
    <line x1="478" y1="104" x2="490" y2="104" class="solid"></line>
  </g>
  <g>
    <line x1="494" y1="76" x2="512" y2="76" class="solid"></line>
    <line x1="494" y1="76" x2="494" y2="108" class="solid"></line>
    <line x1="474" y1="96" x2="474" y2="108" class="solid"></line>
    <line x1="474" y1="108" x2="494" y2="108" class="solid"></line>
  </g>
  <g>
    <line x1="618" y1="72" x2="640" y2="72" class="solid"></line>
    <line x1="618" y1="72" x2="618" y2="104" class="solid"></line>
    <line x1="606" y1="96" x2="606" y2="104" class="solid"></line>
    <line x1="606" y1="104" x2="618" y2="104" class="solid"></line>
  </g>
  <g>
    <line x1="622" y1="76" x2="640" y2="76" class="solid"></line>
    <line x1="622" y1="76" x2="622" y2="108" class="solid"></line>
    <line x1="602" y1="96" x2="602" y2="108" class="solid"></line>
    <line x1="602" y1="108" x2="622" y2="108" class="solid"></line>
  </g>
  <g>
    <line x1="338" y1="80" x2="338" y2="92" class="solid"></line>
    <line x1="338" y1="92" x2="344" y2="92" class="solid"></line>
  </g>
  <g>
    <line x1="342" y1="80" x2="342" y2="88" class="solid"></line>
    <line x1="342" y1="88" x2="344" y2="88" class="solid"></line>
  </g>
  <g>
    <line x1="392" y1="88" x2="398" y2="88" class="solid"></line>
    <line x1="398" y1="88" x2="398" y2="108" class="solid"></line>
    <line x1="346" y1="96" x2="346" y2="108" class="solid"></line>
    <line x1="346" y1="108" x2="398" y2="108" class="solid"></line>
  </g>
  <g>
    <line x1="392" y1="92" x2="394" y2="92" class="solid"></line>
    <line x1="394" y1="92" x2="394" y2="104" class="solid"></line>
    <line x1="350" y1="96" x2="350" y2="104" class="solid"></line>
    <line x1="350" y1="104" x2="394" y2="104" class="solid"></line>
  </g>
  <g>
    <line x1="402" y1="80" x2="402" y2="92" class="solid"></line>
    <line x1="402" y1="92" x2="408" y2="92" class="solid"></line>
  </g>
  <g>
    <line x1="406" y1="80" x2="406" y2="88" class="solid"></line>
    <line x1="406" y1="88" x2="408" y2="88" class="solid"></line>
  </g>
  <g>
    <line x1="538" y1="80" x2="538" y2="92" class="solid"></line>
    <line x1="538" y1="92" x2="544" y2="92" class="solid"></line>
  </g>
  <g>
    <line x1="542" y1="80" x2="542" y2="88" class="solid"></line>
    <line x1="542" y1="88" x2="544" y2="88" class="solid"></line>
  </g>
  <g>
    <line x1="592" y1="88" x2="598" y2="88" class="solid"></line>
    <line x1="598" y1="88" x2="598" y2="108" class="solid"></line>
    <line x1="546" y1="96" x2="546" y2="108" class="solid"></line>
    <line x1="546" y1="108" x2="598" y2="108" class="solid"></line>
  </g>
  <g>
    <line x1="592" y1="92" x2="594" y2="92" class="solid"></line>
    <line x1="594" y1="92" x2="594" y2="104" class="solid"></line>
    <line x1="550" y1="96" x2="550" y2="104" class="solid"></line>
    <line x1="550" y1="104" x2="594" y2="104" class="solid"></line>
  </g>
</svg>
